# xmcd
#
# Track frame offsets:
#	150
#	16493
#	28482
#	44021
#	69200
#	88771
#
# Disc length: 1430 seconds
#
# Revision: 0
# Processed by: cddbd v1.5.2PL0 Copyright (c) Steve Scherf et al.
# Submitted via: dBpowerAMP V4.0
#
DISCID=4e059406
DTITLE=Visible Shivers - Don't Try this at Home
DYEAR=1998
DGENRE=Alt. Country
TTITLE0=Southern Hospitality
TTITLE1=Half a Dozen Lies
TTITLE2=Better Than You
TTITLE3=Never Turn Away
TTITLE4=Promise Me
TTITLE5=Little Noises
EXTD=
EXTT0=
EXTT1=
EXTT2=
EXTT3=
EXTT4=
EXTT5=
PLAYORDER=
